<svg xmlns="http://www.w3.org/2000/svg" viewBox="0 0 1600 1000" role="img" aria-labelledby="title desc">
  <title id="title">Equipo de astrofotografía</title>
  <desc id="desc">Ilustración técnica provisional de un telescopio montado sobre trípode bajo el cielo nocturno</desc>
  <defs>
    <linearGradient id="sky" x1="0" y1="0" x2="0" y2="1">
      <stop offset="0" stop-color="#070b16"/>
      <stop offset="0.65" stop-color="#10182b"/>
      <stop offset="1" stop-color="#172237"/>
    </linearGradient>
    <radialGradient id="glow" cx="50%" cy="50%" r="50%">
      <stop offset="0" stop-color="#496185" stop-opacity=".44"/>
      <stop offset="1" stop-color="#18253d" stop-opacity="0"/>
    </radialGradient>
    <linearGradient id="tube" x1="0" x2="1">
      <stop offset="0" stop-color="#d9e1e8"/>
      <stop offset="0.45" stop-color="#aeb9c6"/>
      <stop offset="0.72" stop-color="#e3e8ec"/>
      <stop offset="1" stop-color="#8b98a8"/>
    </linearGradient>
    <linearGradient id="metal" x1="0" y1="0" x2="1" y2="1">
      <stop offset="0" stop-color="#6d7b8d"/>
      <stop offset="0.48" stop-color="#222c3a"/>
      <stop offset="1" stop-color="#8794a5"/>
    </linearGradient>
    <linearGradient id="gold" x1="0" x2="1">
      <stop offset="0" stop-color="#9b7729"/>
      <stop offset="0.5" stop-color="#f1d67c"/>
      <stop offset="1" stop-color="#9f792c"/>
    </linearGradient>
    <filter id="blur"><feGaussianBlur stdDeviation="28"/></filter>
    <filter id="shadow" x="-30%" y="-30%" width="160%" height="180%"><feDropShadow dx="0" dy="18" stdDeviation="16" flood-color="#000" flood-opacity=".58"/></filter>
  </defs>

  <rect width="1600" height="1000" fill="url(#sky)"/>
  <ellipse cx="880" cy="420" rx="620" ry="330" fill="url(#glow)" filter="url(#blur)"/>
  <g fill="#f7f1d3">
    <circle cx="95" cy="106" r="2.4"/><circle cx="183" cy="184" r="1.4"/><circle cx="274" cy="83" r="2"/>
    <circle cx="365" cy="219" r="1.3"/><circle cx="459" cy="126" r="2.7"/><circle cx="568" cy="60" r="1.5"/>
    <circle cx="655" cy="174" r="1.8"/><circle cx="774" cy="99" r="2.2"/><circle cx="848" cy="212" r="1.2"/>
    <circle cx="975" cy="71" r="2.5"/><circle cx="1062" cy="151" r="1.5"/><circle cx="1174" cy="102" r="2"/>
    <circle cx="1282" cy="207" r="1.2"/><circle cx="1391" cy="77" r="2.6"/><circle cx="1492" cy="165" r="1.6"/>
    <circle cx="134" cy="322" r="1.2"/><circle cx="297" cy="285" r="2.2"/><circle cx="522" cy="307" r="1.4"/>
    <circle cx="1111" cy="271" r="1.8"/><circle cx="1334" cy="338" r="1.3"/><circle cx="1514" cy="286" r="2.1"/>
  </g>
  <path d="M0 800c190-52 316-45 483-4 166 41 321 51 510-2 206-57 398-51 607 21v185H0Z" fill="#080c13"/>
  <path d="M0 842c205-40 350-26 515 19 157 43 329 34 510-8 225-53 391-34 575 23" fill="none" stroke="#263249" stroke-width="3" opacity=".55"/>

  <g filter="url(#shadow)">
    <!-- tripod -->
    <path d="M720 641 526 950" stroke="#59677a" stroke-width="28" stroke-linecap="round"/>
    <path d="M747 646 930 950" stroke="#4c596b" stroke-width="28" stroke-linecap="round"/>
    <path d="M737 650 720 966" stroke="#778596" stroke-width="24" stroke-linecap="round"/>
    <path d="M574 948h-90M887 948h90M680 967h87" stroke="#151d29" stroke-width="20" stroke-linecap="round"/>
    <path d="M714 686h47" stroke="#d8c26f" stroke-width="8" stroke-linecap="round" opacity=".82"/>
    <!-- mount -->
    <rect x="655" y="570" width="167" height="86" rx="22" fill="#131b27" stroke="#67758a" stroke-width="7"/>
    <circle cx="738" cy="566" r="77" fill="url(#metal)" stroke="#8c98a8" stroke-width="8"/>
    <circle cx="738" cy="566" r="45" fill="#121a27" stroke="#d2b95f" stroke-width="7"/>
    <circle cx="738" cy="566" r="13" fill="#d9c16d"/>
    <path d="m758 496 50-80" stroke="#69778a" stroke-width="45" stroke-linecap="round"/>
    <path d="m758 496 50-80" stroke="#1a2432" stroke-width="24" stroke-linecap="round"/>
    <!-- OTA support and tube -->
    <g transform="rotate(-7 920 385)">
      <rect x="520" y="336" width="730" height="142" rx="46" fill="url(#tube)" stroke="#667486" stroke-width="8"/>
      <path d="M588 340v134M624 340v134" stroke="#202a38" stroke-width="15"/>
      <rect x="465" y="324" width="137" height="166" rx="32" fill="#171f2b" stroke="#647286" stroke-width="8"/>
      <ellipse cx="476" cy="407" rx="31" ry="69" fill="#0a101b" stroke="#b79a43" stroke-width="6"/>
      <path d="M625 352h560" stroke="#f5f7f8" stroke-width="7" opacity=".55"/>
      <rect x="752" y="319" width="36" height="176" rx="10" fill="#242e3d" stroke="#7c8999" stroke-width="6"/>
      <rect x="1002" y="319" width="36" height="176" rx="10" fill="#242e3d" stroke="#7c8999" stroke-width="6"/>
      <path d="M770 498v48M1020 498v48M770 536h250" fill="none" stroke="#6c798b" stroke-width="15" stroke-linecap="round"/>
      <!-- imaging train -->
      <rect x="1246" y="356" width="81" height="103" rx="17" fill="#1b2534" stroke="#7d8999" stroke-width="7"/>
      <circle cx="1362" cy="407" r="65" fill="#1b2431" stroke="#9aa6b5" stroke-width="9"/>
      <circle cx="1362" cy="407" r="34" fill="#0c131e" stroke="#d3ba5f" stroke-width="5"/>
      <rect x="1423" y="371" width="98" height="72" rx="15" fill="#222d3b" stroke="#8592a1" stroke-width="7"/>
      <rect x="1510" y="383" width="50" height="48" rx="10" fill="#101822" stroke="#5f6e81" stroke-width="6"/>
      <path d="M1271 352v-51h54v52" fill="#111925" stroke="#647286" stroke-width="6"/>
      <circle cx="1298" cy="296" r="12" fill="url(#gold)"/>
    </g>
    <!-- onboard electronics -->
    <rect x="844" y="505" width="133" height="87" rx="14" fill="#111925" stroke="#708095" stroke-width="7"/>
    <rect x="862" y="523" width="96" height="15" rx="6" fill="url(#gold)"/>
    <circle cx="872" cy="565" r="6" fill="#62d0ac"/><circle cx="895" cy="565" r="6" fill="#6aa5f3"/>
    <rect x="1000" y="533" width="94" height="65" rx="12" fill="#172231" stroke="#68788c" stroke-width="6"/>
    <path d="M977 551c74-4 112-28 137-68 28-45 80-55 133-50" fill="none" stroke="#d0b656" stroke-width="6" stroke-linecap="round"/>
    <path d="M954 591c12 42 30 65 70 77 39 12 64 41 71 82" fill="none" stroke="#4d80b7" stroke-width="6" stroke-linecap="round"/>
  </g>

  <path d="M78 735h282" stroke="#e4c66a" stroke-width="2" opacity=".45"/>
  <path d="M1240 760h280" stroke="#e4c66a" stroke-width="2" opacity=".45"/>
</svg>
